:SAMPLES-PER-SECOND 30
:FULLY-SPECIFIED
:DEGREES
165
root  3.14667 40.4127 0.928265 -54.7567 -88.1612 54.8533
RightUpLeg  -19.0619 -3.80843 7.70125
RightLeg  16.4745 6.18112 2.02336
RightFoot  14.8153 -4.48867 19.8076
RightToes  7.56698e-010 0 -3.6325e-017
Spine  19.5811 -2.04325 0.38671
Spine1  1.67203 -2.08833 0.791967
HEad  -15.6092 7.21394 -8.29831
LeftShoulder1  2.36903 -8.95661 -11.8866
LeftArm  -15.0022 -5.10035 -53.9716
LeftForeArm  2.45361 -53.6857 -14.5401
LeftHand  -1.6522 -4.2566 19.9516
RightShoulder  1.83242 4.21636 17.1588
RightArm  -27.075 7.94913 56.2836
RightForeArm  6.60681 42.4883 9.60476
RightHand  -2.7808 9.01356 -22.4808
LeftUpLeg  -8.66014 -5.10289 -1.08618
LeftLeg  51.883 3.37805 5.01545
LeftFoot  21.4457 -0.125393 0.0460784
LeftToes  -3.13779e-010 -2.47553e-011 -5.36621e-011
166
root  3.42087 41.249 0.240181 -3.48802 -86.3862 2.68066
RightUpLeg  -14.2766 -0.937512 4.97631
RightLeg  20.0213 4.52258 1.54102
RightFoot  8.75796 -3.40239 19.0198
RightToes  7.56698e-010 0 -3.6325e-017
Spine  20.5139 -1.07888 3.66716
Spine1  4.56373 0.277838 -3.27943
HEad  -16.0936 -0.588373 -4.12577
LeftShoulder1  2.64426 -8.69862 -14.8303
LeftArm  -10.863 -15.3508 -52.9959
LeftForeArm  -5.73575 -34.2924 -7.72585
LeftHand  -1.78933 -4.17623 21.8225
RightShoulder  1.75905 4.59006 14.9425
RightArm  -22.983 11.7082 56.2124
RightForeArm  4.57753 31.9085 6.69918
RightHand  -2.93558 9.57293 -22.8216
LeftUpLeg  -17.1158 -4.13637 -0.642803
LeftLeg  56.0873 5.96882 9.85438
LeftFoot  17.9533 -0.450528 1.24054
LeftToes  -3.13779e-010 -2.47553e-011 -5.36621e-011
167
root  3.44498 41.7291 -0.505309 -6.32971 -81.6842 4.65327
RightUpLeg  -7.8488 -0.138397 1.82645
RightLeg  25.3614 -2.28649 -1.42709
RightFoot  2.58488 -1.30259 10.8919
RightToes  7.56698e-010 0 -3.6325e-017
Spine  20.468 -0.872818 4.40209
Spine1  6.79516 1.26515 -5.97102
HEad  -16.3062 -6.45057 0.141916
LeftShoulder1  2.97952 -8.42065 -18.4225
LeftArm  -7.81193 -21.6491 -52.2314
LeftForeArm  -10.3654 -22.8767 -5.4388
LeftHand  -1.66217 -2.76587 23.5937
RightShoulder  1.78397 4.63807 15.1502
RightArm  -21.6988 12.6374 55.1339
RightForeArm  3.66044 29.1096 6.09306
RightHand  -2.86627 9.30497 -22.6912
LeftUpLeg  -23.0119 -4.2609 -2.83947
LeftLeg  52.4719 3.80026 5.95542
LeftFoot  14.6248 0.46707 -2.35546
LeftToes  -3.13779e-010 -2.47553e-011 -5.36621e-011
168
root  3.2277 41.5887 -1.22495 -5.4668 -75.5434 2.8237
RightUpLeg  0.541056 -2.08191 0.255306
RightLeg  28.1792 -9.48465 -5.64555
RightFoot  0.991206 -0.380179 3.78546
RightToes  7.56698e-010 0 -3.6325e-017
Spine  19.738 -1.53911 4.83685
Spine1  8.0772 0.950998 -7.15616
HEad  -16.5091 -10.8476 4.77469
LeftShoulder1  3.1693 -8.47668 -20.0094
LeftArm  -11.5177 -20.4142 -52.3398
LeftForeArm  -10.1266 -22.8975 -5.82707
LeftHand  -1.60004 -2.92437 22.3944
RightShoulder  1.85909 4.39237 16.9403
RightArm  -24.2625 9.77574 54.276
RightForeArm  4.38901 34.629 7.48977
RightHand  -2.6842 8.78621 -22.0511
LeftUpLeg  -25.9822 -4.70589 -5.73408
LeftLeg  44.5908 0.15525 0.517474
LeftFoot  17.459 2.42722 -9.7654
LeftToes  -3.13779e-010 -2.47553e-011 -5.36621e-011
169
root  2.64305 40.8816 -1.85661 0.460342 -69.728 -3.24275
RightUpLeg  9.03808 -4.4885 1.62672
RightLeg  26.4931 -14.5862 -7.97799
RightFoot  2.65064 0.0172032 -0.0543921
RightToes  7.56698e-010 0 -3.6325e-017
Spine  17.1628 -1.99627 6.17401
Spine1  8.68137 0.497064 -6.92851
HEad  -16.1805 -14.8505 8.28629
LeftShoulder1  3.23463 -8.51353 -20.5056
LeftArm  -14.7634 -13.4152 -52.6757
LeftForeArm  -8.9798 -33.3223 -7.82868
LeftHand  -1.5061 -4.10743 18.5401
RightShoulder  1.86471 4.01387 18.3112
RightArm  -27.2868 3.32788 53.5972
RightForeArm  7.24958 48.2137 12.16
RightHand  -2.38986 8.22191 -20.4888
LeftUpLeg  -27.3917 -4.58392 -7.47255
LeftLeg  38.2354 -0.139894 0.19895
LeftFoot  22.3108 3.59932 -12.4307
LeftToes  -3.13779e-010 -2.47553e-011 -5.36621e-011
170
root  2.00175 39.7957 -2.38127 9.23537 -66.5294 -10.6337
RightUpLeg  14.6713 -4.31956 5.15665
RightLeg  21.5643 -15.9646 -7.34759
RightFoot  2.82496 -0.0824621 0.884319
RightToes  7.56698e-010 0 -3.6325e-017
Spine  13.5471 -1.08669 8.03555
Spine1  8.2647 1.31952 -6.48295
HEad  -14.9924 -18.4316 10.093
LeftShoulder1  3.29658 -8.34995 -21.4601
LeftArm  -15.7145 -3.77242 -52.3667
LeftForeArm  -5.64968 -50.0984 -13.9776
LeftHand  -1.22323 -4.38042 14.7332
RightShoulder  1.79519 3.53509 19.074
RightArm  -28.8402 -4.49202 51.7
RightForeArm  18.1616 66.1834 25.9667
RightHand  -1.94477 6.9347 -18.4831
LeftUpLeg  -29.5717 -4.8252 -6.61382
LeftLeg  37.606 2.59217 2.53794
LeftFoot  20.1811 2.458 -9.01739
LeftToes  -3.13779e-010 -2.47553e-011 -5.36621e-011
171
root  1.62494 38.4379 -2.77814 17.6933 -66.2636 -17.7935
RightUpLeg  17.0439 -2.21158 7.37157
RightLeg  18.5672 -9.104 -4.16202
RightFoot  -2.83983 -0.450524 6.38468
RightToes  7.56698e-010 0 -3.6325e-017
Spine  11.1401 0.426986 9.81865
Spine1  7.468 3.03141 -6.98415
HEad  -14.8145 -20.2334 11.1568
LeftShoulder1  3.37465 -8.19849 -22.5495
LeftArm  -16.5743 6.17144 -51.1527
LeftForeArm  9.39906 -69.5667 -34.7419
LeftHand  -0.942025 -3.27886 12.8513
RightShoulder  1.70661 3.09908 19.4443
RightArm  -29.6526 -9.8505 48.7021
RightForeArm  67.1634 79.0226 78.5367
RightHand  -1.54034 4.95881 -17.4623
LeftUpLeg  -31.8103 -6.23467 -4.13308
LeftLeg  41.9237 5.00886 5.20754
LeftFoot  9.59095 0.601846 -3.3641
LeftToes  -3.13779e-010 -2.47553e-011 -5.36621e-011
